<svg width="425" height="410" viewBox="0 0 425 410" fill="none" xmlns="http://www.w3.org/2000/svg">
<g clip-path="url(#clip0_1_2)">
<path d="M223.196 407.778C232.484 404.297 237.223 402.218 246.225 397.679C265.165 388.128 281.997 376.599 300.213 360.699C306.119 355.543 321.038 340.66 326.509 334.466C349.053 308.944 366.962 282.368 382.741 251.019C407.244 202.341 421.744 151.019 424.648 102.691C425.377 90.5511 424.925 68.7562 423.74 59.0103L423.515 57.1552L418.317 53.2777C400.216 39.7744 379.773 30.2865 350.978 22.0229C320.805 13.3642 287.653 8.18465 245.692 5.57379C235.814 4.95913 193.037 4.96064 183.195 5.576C154.582 7.36513 131.425 10.2629 108.533 14.9191L106.488 15.3351L104.45 13.7356C95.5354 6.74065 84.657 2.09935 73.4398 0.505072C68.7017 -0.168357 60.1309 -0.168357 55.3928 0.505072C26.9238 4.55133 4.55133 26.9238 0.505071 55.3928C-0.168357 60.1309 -0.168357 68.7017 0.505071 73.4398C1.52363 80.6063 3.75025 87.573 7.11692 94.1272L8.94113 97.6786L9.23942 102.353C13.187 164.217 37.7632 233.924 76.1129 292.032C90.1372 313.282 103.469 329.877 120.152 346.848C147.692 374.866 177.046 394.842 208.741 407.134C211.975 408.389 214.941 409.558 215.332 409.734C216.497 410.258 216.75 410.195 223.196 407.778Z" fill="#0A8600"/>
<path d="M54.8287 110.24C36.4009 106.345 22.4757 92.5714 18.3752 74.1815C17.6683 71.0113 17.5456 69.4958 17.5563 64.0613C17.5674 58.3547 17.6695 57.2682 18.5083 53.9254C20.3026 46.7751 22.7045 41.6483 26.8192 36.1863C33.8464 26.8581 43.6153 20.6996 55.3614 18.1925C59.6053 17.2867 69.255 17.2962 73.4568 18.2103C82.5711 20.1931 89.9382 24.0606 96.4838 30.2987C103.478 36.9646 107.552 43.9819 109.967 53.5266C110.847 57.0017 110.926 57.8862 110.924 64.2388C110.923 70.6668 110.851 71.4521 109.912 75.1945C108.406 81.1992 106.798 84.9044 103.494 89.9832C97.7911 98.749 88.7428 105.707 78.8388 108.943C71.7068 111.273 62.1602 111.789 54.8287 110.24ZM68.6273 103.599C68.8502 103.291 69.8201 98.2111 70.7826 92.3102C72.268 83.2045 72.456 81.5327 72.0255 81.2602C71.0114 80.6185 70.282 80.9261 69.6549 82.2599L69.0288 83.5915L65.6573 83.6989C61.0968 83.8441 60.1057 83.6265 59.4367 82.3327C58.8732 81.243 58.245 81.0454 57.1709 81.6202C56.5737 81.9398 56.5839 82.1446 57.3701 85.615C57.8258 87.6269 58.8498 92.2292 59.6455 95.8422C61.4779 104.162 61.2691 103.544 62.3907 103.976C63.855 104.539 68.1342 104.281 68.6273 103.599ZM52.5052 98.7718C52.4968 98.43 51.6472 94.7462 50.6174 90.5855L48.745 83.0207L46.8155 81.5041C44.4185 79.6201 42.811 77.8048 41.8158 75.8583C40.8799 74.0277 40.1022 71.2138 40.0965 69.6373C40.0927 68.6047 39.3558 67.704 33.8496 62.0028C30.4161 58.4477 27.4863 55.4945 27.3388 55.4401C26.9878 55.3107 26.0115 57.5798 25.4965 59.7226C25.272 60.6564 25.162 62.6538 25.252 64.1613C25.4604 67.6504 26.3379 69.4035 29.2875 72.2233C32.1577 74.9673 38.2579 85.1527 39.1745 88.7316C39.9199 91.6415 41.0241 93.526 43.111 95.4496C45.9861 98.0998 52.546 100.42 52.5052 98.7718ZM81.6384 98.4318C86.2842 96.9026 89.156 93.4433 89.9787 88.3853C90.384 85.894 96.5785 75.3001 99.1517 72.6978C101.908 69.9106 103.033 67.4266 103.23 63.6951C103.376 60.9165 102.65 56.7004 101.894 55.9448C101.716 55.7672 99.0057 58.0842 95.5679 61.3522L89.5526 67.0704L89.3349 69.1168C88.8304 73.8587 86.3104 78.4582 82.8085 81.0289L81.0378 82.3287L79.5714 87.7539C78.7648 90.7377 77.7129 94.5906 77.2338 96.316L76.3627 99.4529L78.2016 99.2053C79.213 99.0691 80.7595 98.721 81.6384 98.4318ZM54.148 78.0697C55.781 77.0834 57.1934 76.1528 57.2867 76.0017C57.3801 75.8506 56.6628 75.1344 55.6927 74.4102C52.7195 72.1905 50.8065 68.8565 50.2051 64.8463C50.0672 63.9263 49.8706 63.1735 49.7683 63.1735C49.666 63.1735 48.1514 64.0923 46.4024 65.2153L43.2226 67.2571L43.4487 68.9708C43.9582 72.8319 46.3278 76.8564 49.2191 78.7716C50.1254 79.3719 50.9371 79.863 51.023 79.863C51.1089 79.863 52.5151 79.056 54.148 78.0697ZM80.9913 77.4661C82.1689 76.3431 83.5198 74.7633 83.9934 73.9555C84.7218 72.713 85.8726 68.6145 85.8933 67.189C85.8987 66.8186 80.2391 63.2262 79.387 63.0591C79.2099 63.0244 78.8601 63.9704 78.6095 65.1614C77.9514 68.2902 76.5634 70.7636 73.9805 73.4108C72.7326 74.6898 71.748 75.7673 71.7925 75.8054C72.1367 76.1001 78.3291 79.4695 78.5576 79.4863C78.7186 79.4981 79.8138 78.5891 80.9913 77.4661ZM69.1464 73.0919C73.2486 71.042 75.4473 67.222 75.1617 62.6409C74.8956 58.3725 72.9008 55.3289 69.0325 53.2893C67.5175 52.4905 66.8142 52.3531 64.2387 52.3531C61.6418 52.3531 60.9633 52.488 59.3784 53.3194C57.1059 54.5114 55.3144 56.3171 54.2422 58.4961C53.0481 60.923 53.0609 65.4858 54.2687 67.9399C55.3937 70.2258 57.4621 72.2593 59.7417 73.3207C62.5561 74.6311 66.2459 74.5413 69.1464 73.0919ZM46.4079 60.2469C46.7096 59.8834 46.6386 59.5131 46.1147 58.7184C45.7345 58.1415 45.4223 57.4282 45.421 57.1331C45.4186 56.565 48.2103 52.1827 49.4339 50.834C49.9383 50.278 50.5612 50.035 51.4825 50.035C52.6279 50.035 52.8552 49.8945 53.17 48.9916C53.4339 48.2345 53.4191 47.858 53.1159 47.6198C52.6798 47.2771 32.7297 42.2229 31.8131 42.2229C30.9824 42.2229 29.1427 44.5693 28.8814 45.9618C28.6639 47.1213 28.7616 47.3317 30.018 48.4104C30.7739 49.0595 34.4177 52.2373 38.1153 55.4721C45.0292 61.5209 45.2467 61.6461 46.4079 60.2469ZM91.8611 54.268C97.1792 49.5945 99.6047 47.2347 99.6804 46.6604C99.822 45.5862 98.539 43.0711 97.5903 42.5634C96.7937 42.1371 97.3194 42.0229 83.2363 45.6791C79.135 46.7439 75.6657 47.7219 75.5267 47.8525C75.0549 48.2962 76.1456 49.8612 76.8654 49.7733C78.4563 49.579 79.0847 50.0942 81.2246 53.3472C82.4287 55.1776 83.4128 56.899 83.4115 57.1724C83.4101 57.4458 83.0969 58.1433 82.7152 58.7223C82.0744 59.6946 82.0652 59.8234 82.5951 60.409C82.9106 60.7577 83.3899 61.043 83.6602 61.043C83.9304 61.043 87.6208 57.9942 91.8611 54.268ZM72.0508 47.3973V43.3393L70.009 42.526C68.3435 41.8627 67.2801 41.7113 64.2387 41.7044C61.0284 41.697 60.2758 41.812 58.8235 42.5312L57.1368 43.3664V47.2334C57.1368 49.6734 57.2731 51.1003 57.5061 51.1003C57.7092 51.1003 58.5481 50.7408 59.3703 50.3013C60.6395 49.6231 61.4017 49.5039 64.4163 49.5122C67.5126 49.5209 68.2173 49.6421 69.9202 50.4596C70.9944 50.9753 71.9132 51.4103 71.962 51.4263C72.0109 51.4423 72.0508 49.6293 72.0508 47.3973ZM58.3201 39.6528C60.7142 38.5714 61.1078 38.503 64.9489 38.5012C68.4311 38.4995 69.2875 38.6166 70.7643 39.2959C71.7169 39.7339 72.9153 40.0838 73.4276 40.0734C75.0478 40.0404 89.9362 35.9718 90.0865 35.521C90.1656 35.2839 89.0406 33.9194 87.5867 32.4889C85.5672 30.5019 84.4903 29.7326 83.0245 29.2301C80.4829 28.3588 77.1259 28.4161 74.0552 29.3831C71.9222 30.0548 70.796 30.1497 64.9562 30.1497C59.587 30.1497 57.9894 30.0344 56.7376 29.5566C55.7066 29.1631 54.0426 28.954 51.7919 28.9352C48.6238 28.9088 48.2462 28.9849 46.0714 30.0888C43.6701 31.3076 39.6062 34.9056 39.8397 35.6061C39.9122 35.8237 43.4742 37.0654 47.7552 38.3654C52.0363 39.6654 55.592 40.7456 55.6569 40.7658C55.7218 40.786 56.9203 40.2852 58.3201 39.6528Z" fill="url(#paint0_radial_1_2)"/>
<path d="M234.452 375.934L229.407 370.847V350.809V330.771L239.372 320.831C244.853 315.364 249.496 310.605 249.689 310.257C249.949 309.789 249.803 309.028 249.134 307.355C248.483 305.728 248.227 304.429 248.227 302.752C248.227 301.467 248.347 300.416 248.494 300.418C249.084 300.422 256.477 306.907 260.801 311.213C265.223 315.616 265.37 315.81 264.539 316.129C263.262 316.619 259.349 316.205 257.018 315.333C255.896 314.913 254.695 314.66 254.348 314.77C254.001 314.88 249.685 319.013 244.758 323.954L235.799 332.939V350.852V368.766L240.415 373.276C242.954 375.757 245.031 377.941 245.031 378.131C245.031 378.538 240.698 381.022 239.987 381.022C239.717 381.022 237.226 378.732 234.452 375.934ZM287.004 343.471C286.787 340.98 286.202 337.295 285.706 335.281L284.802 331.618V301.012V270.406L298.828 256.384L312.855 242.361V215.486V188.612L303.739 179.531C298.725 174.537 294.497 170.451 294.342 170.451C294.187 170.451 293.216 170.785 292.183 171.193C286.022 173.629 278.785 171.412 275.126 165.968C271.683 160.847 271.96 153.971 275.814 148.909C278.257 145.699 283.527 143.549 288.028 143.926C297.419 144.714 303.427 154.251 300.079 163.057C299.684 164.097 299.361 165.187 299.361 165.482C299.361 165.776 303.835 170.489 309.304 175.955L319.246 185.893V215.362V244.831L305.22 258.874L291.194 272.916V308.963V345.009L289.671 346.504C288.834 347.326 287.98 347.998 287.773 347.998C287.55 347.998 287.239 346.164 287.004 343.471ZM137.959 339.712C134.281 336.311 124.299 325.772 124.299 325.288C124.299 325.084 124.606 324.917 124.982 324.917C125.48 324.917 125.972 324.249 126.808 322.434C129.461 316.679 136.122 313.048 141.899 314.208C149.429 315.72 154.093 321.568 153.702 329.008C153.576 331.407 153.338 332.378 152.411 334.261C150.422 338.301 146.427 341.327 142.025 342.128C140.893 342.334 140.619 342.171 137.959 339.712ZM315.34 306.191V292.437L329.567 278.194L343.794 263.951L343.578 229.008C343.444 207.375 343.489 193.876 343.696 193.57C344.196 192.829 403.531 133.53 403.651 133.65C403.709 133.707 403.34 136.058 402.833 138.875L401.911 143.996L375.848 170.101L349.784 196.206V231.531V266.856L335.669 280.973L321.554 295.091L321.443 304.378L321.332 313.665L318.647 316.805C317.17 318.532 315.821 319.946 315.651 319.946C315.479 319.946 315.34 313.803 315.34 306.191ZM270.351 306.359C266.669 301.722 260.66 295.081 257.518 292.178C256.314 291.065 255.329 290.086 255.329 290.003C255.329 289.919 256.168 289.477 257.193 289.022C258.706 288.349 259.661 288.195 262.254 288.203C266.521 288.216 268.801 289.102 271.813 291.919C275.376 295.253 276.986 299.768 276.246 304.358C275.916 306.412 274.543 309.717 273.841 310.151C273.664 310.261 272.094 308.554 270.351 306.359ZM158.388 232.8C154.775 231.578 150.42 230.192 148.71 229.721L145.601 228.864L144.981 227.266C144.556 226.167 144.362 224.663 144.362 222.453C144.362 219.451 144.451 219.06 145.702 216.529C147.677 212.533 150.405 210.303 154.93 208.988C156.044 208.664 157.056 208.236 157.18 208.035C157.303 207.835 155.229 205.476 152.57 202.793L147.735 197.914V172.538V147.162L160.068 134.838L172.401 122.513H184.61H196.819L219.949 99.4322L243.078 76.3516L270.437 76.3512L297.796 76.3509L300.73 73.4324C303.029 71.1462 303.618 70.3576 303.451 69.7926C302.188 65.5162 302.442 62.2042 304.327 58.3751C305.653 55.6814 307.917 53.553 311.015 52.0862C313.186 51.0587 313.689 50.9633 316.944 50.9625C320.258 50.9618 320.666 51.0426 322.903 52.1431C327.366 54.3393 330.118 58.027 330.978 62.9632C331.778 67.5557 329.693 73.0312 326.04 75.93C321.314 79.6811 314.216 80.2344 309.577 77.2133C308.849 76.7386 307.967 76.3505 307.617 76.3505C307.268 76.3505 305.47 77.8686 303.622 79.7239L300.263 83.0973H272.877H245.491L222.382 106.178L199.272 129.26H187.068H174.864L164.673 139.454L154.482 149.649V172.572V195.494L159.454 200.456L164.425 205.418V207.453V209.489L166.329 210.895C168.9 212.794 170.649 214.914 171.611 217.295C172.257 218.893 172.412 219.964 172.411 222.827C172.41 226.635 171.905 228.305 169.857 231.271C168.955 232.577 165.883 235.106 165.265 235.05C165.096 235.035 162.001 234.023 158.388 232.8ZM105.124 219.933C98.7768 218.656 93.4315 217.466 93.2456 217.289C92.6673 216.738 95.5484 214.166 98.2346 212.835L100.755 211.587L100.995 206.022L101.235 200.456L110.992 190.676L120.748 180.897L120.744 153.924L120.739 126.952L134.858 113.018L148.977 99.0838L165.415 99.0802L181.854 99.0767L206.606 74.4049L231.359 49.7331L244.146 49.7265L256.933 49.7198L263.055 43.5907C266.422 40.2197 269.176 37.3249 269.176 37.1578C269.176 36.9908 268.637 36.1135 267.978 35.2085C266.207 32.7765 265.278 30.7528 264.717 28.1102C263.885 24.1853 263.899 24.1472 266.069 24.1884C269.324 24.2503 269.667 24.4605 269.972 26.5819C270.483 30.1312 272.95 33.442 276.352 35.1417C278.272 36.101 278.878 36.2262 281.605 36.2262C284.327 36.2262 284.939 36.1004 286.845 35.1481C289.39 33.876 291.295 31.8924 292.502 29.2557C292.982 28.2069 293.47 27.3488 293.586 27.3488C293.702 27.3488 294.809 27.525 296.046 27.7404C298.794 28.2189 298.874 28.5797 297.048 32.2294C294.61 37.103 289.75 40.6554 284.225 41.6029C281.798 42.0192 280.197 41.8952 276.171 40.9791C275.25 40.7694 274.59 41.3351 267.268 48.6096L259.361 56.4666L246.602 56.4687L233.844 56.4708L209.316 80.9704L184.787 105.47L168.302 105.478L151.818 105.486L139.478 117.751L127.138 130.017V156.895V183.773L117.373 193.533L107.608 203.293V207.477V211.661L108.585 212.025C112.482 213.481 115.374 215.934 116.972 219.14C118.066 221.337 118.163 222.304 117.285 222.276C116.943 222.265 111.471 221.21 105.124 219.933ZM250.359 197.198C248.28 196.758 244.949 194.903 243.33 193.284C237.661 187.616 237.847 178.586 243.749 173.005C245.981 170.894 247.947 169.898 251.181 169.239L253.376 168.791L253.554 159.325L253.731 149.859L263.494 140.092L273.256 130.325H329.114H384.972L395.847 119.495C401.828 113.538 406.772 108.664 406.833 108.664C406.969 108.664 406.66 112.194 406.211 115.766L405.876 118.429L396.741 127.573L387.607 136.717H331.87H276.134L268.128 144.699L260.123 152.682L260.016 161.403L259.91 170.125L261.25 171.264C264.899 174.368 266.701 177.235 267.391 181.039C268.475 187.019 265.043 193.435 259.331 196.108C257.521 196.955 256.5 197.185 254.161 197.274C252.557 197.336 250.847 197.301 250.359 197.198ZM47.3339 190.957C47.1405 190.713 46.5646 189.842 46.0544 189.022L45.1267 187.531L46.932 185.826C47.925 184.889 49.2378 183.163 49.8493 181.991C50.8387 180.095 50.9618 179.528 50.9667 176.842C50.9711 174.226 50.8353 173.545 49.9455 171.733C48.0005 167.772 44.4975 165.359 39.971 164.863L37.4922 164.592L36.9738 162.346C36.3245 159.534 36.5337 159.34 39.9642 159.566C42.784 159.752 46.2726 160.82 48.3574 162.137C49.2043 162.671 50.0362 162.944 50.434 162.818C50.799 162.702 55.264 158.35 60.3561 153.147L69.6146 143.686V136.499V129.311L71.6564 129.076C72.7794 128.946 75.2413 128.535 77.1274 128.162C79.0134 127.789 80.6513 127.484 80.7671 127.484C80.8829 127.484 80.9776 132.237 80.9776 138.046V148.609L68.6917 160.898L56.4057 173.188L56.3141 176.879C56.2087 181.123 55.5196 183.347 53.2615 186.729C51.9118 188.75 48.9924 191.401 48.1165 191.401C47.8796 191.401 47.5274 191.202 47.3339 190.957ZM190.436 182.33C185.375 180.967 182.073 177.871 180.389 172.907C179.756 171.044 179.647 170.096 179.792 167.713C180.117 162.356 182.975 158.124 187.861 155.764C190.02 154.721 190.422 154.649 194.075 154.651C197.783 154.652 198.093 154.71 200.175 155.797C201.381 156.426 202.469 157.105 202.593 157.304C203.368 158.559 204.805 157.229 231.401 130.642L258.435 103.616L313.845 103.743C344.321 103.813 369.342 103.79 369.448 103.693C369.554 103.595 372.444 100.723 375.869 97.3107L382.098 91.1061V71.3C382.098 60.4066 382.218 51.4994 382.364 51.5061C382.511 51.5127 383.909 52.1919 385.471 53.0152L388.312 54.5122L388.404 74.2271L388.495 93.9419L380.219 102.191L371.943 110.44H316.385H260.827L234.122 137.161L207.418 163.881L207.791 165.479C209.173 171.397 205.948 178.39 200.566 181.142C198.776 182.057 195.481 182.884 193.734 182.856C192.945 182.843 191.461 182.606 190.436 182.33ZM182.861 61.4958C173.567 59.0697 168.032 49.1164 170.851 39.902C172.566 34.2983 176.101 30.5584 181.54 28.5935L183.778 27.7851L183.955 25.3678C184.131 22.9788 184.146 22.947 185.313 22.6464C185.962 22.4791 187.4 22.3898 188.509 22.4481L190.524 22.5539L190.702 25.0031C190.824 26.6838 191.046 27.5382 191.412 27.7261C191.705 27.8767 193.185 28.5655 194.702 29.2568C200.999 32.1269 204.536 37.7752 204.546 44.9762C204.562 56.3656 194.009 64.4057 182.861 61.4958ZM192.843 55.3655C195.518 53.94 197.541 51.6993 198.537 49.0605C199.59 46.267 199.385 42.1452 198.064 39.5656C196.842 37.1779 193.816 34.4496 191.456 33.607C188.916 32.7004 184.441 32.9194 182.233 34.0582C179.904 35.2598 177.749 37.4351 176.646 39.6992C175.81 41.4141 175.653 42.1967 175.634 44.7471C175.614 47.301 175.755 48.0744 176.552 49.7736C177.544 51.8891 179.812 54.362 181.63 55.31C185.271 57.2084 189.348 57.2286 192.843 55.3655Z" fill="#AEFFA8" fill-opacity="0.511416"/>
<path d="M258.525 364.687V359.005L256.241 357.926C251.84 355.846 248.597 351.602 247.846 346.938C246.784 340.347 250.131 334.126 256.315 331.197C258.51 330.157 258.99 330.066 262.254 330.074C265.49 330.081 266.016 330.182 268.192 331.205C279.701 336.617 279.771 352.49 268.31 357.905L265.982 359.005V362.539V366.072L262.903 368.221C258.378 371.378 258.525 371.496 258.525 364.687ZM204.373 361.013C200.313 359.67 196.374 356.062 194.939 352.372C193.792 349.421 193.802 344.425 194.959 341.429C196.12 338.426 199.969 334.583 202.952 333.45C211.988 330.015 221.582 335.411 223.03 344.741C223.78 349.576 222.26 354.035 218.706 357.424C215.704 360.289 213.363 361.26 209.166 361.384C207.056 361.446 205.261 361.307 204.373 361.013ZM297.23 307.611V275.392L312.856 259.751L328.482 244.111L328.392 208.651C328.312 177.56 328.236 173.155 327.769 172.9C327.476 172.739 326.348 172.206 325.263 171.714C322.752 170.575 319.537 167.405 318.351 164.899C317.274 162.622 316.793 159.209 317.137 156.291C317.786 150.783 322.016 145.932 327.559 144.338C334.405 142.371 341.785 145.767 344.946 152.341C345.976 154.482 346.055 154.918 346.045 158.377C346.036 161.397 345.881 162.487 345.233 164.113C344.125 166.892 341.016 170.163 338.066 171.653L335.758 172.819L335.668 210.07L335.577 247.321L319.955 262.959L304.332 278.596V305.936V333.276L301.041 336.553C299.231 338.356 297.633 339.831 297.49 339.831C297.347 339.831 297.23 325.332 297.23 307.611ZM156.031 303.591C153.272 303.233 150.611 301.89 148.267 299.673C144.949 296.534 143.59 292.847 143.929 287.902C144.274 282.859 147.41 278.216 151.951 276.024C154.144 274.966 154.469 274.656 154.477 273.619C154.481 273.174 150.494 268.926 143.474 261.893C137.42 255.828 132.466 250.748 132.466 250.606C132.466 250.145 133.609 250.332 139.345 251.729L144.981 253.102L153.283 261.398L161.584 269.694L161.589 271.827C161.591 273.001 161.712 274.131 161.855 274.34C161.999 274.549 163.205 275.224 164.536 275.841C167.486 277.209 170.323 279.985 171.757 282.907C172.691 284.811 172.769 285.282 172.769 289.052C172.769 292.75 172.678 293.33 171.807 295.189C170.575 297.817 167.438 301.107 165.047 302.277C162.35 303.598 159.397 304.028 156.031 303.591ZM336.097 293.757C336.544 291.927 337.959 289.233 339.346 287.572C341.013 285.575 343.507 283.537 343.674 284.036C343.79 284.387 340.738 289.134 337.993 292.87C336.474 294.938 335.723 295.289 336.097 293.757ZM190.114 246.704C186.568 244.899 183.352 243.136 182.967 242.786C180.979 240.977 180.321 233.917 181.782 230.085C182.197 228.999 183.255 227.268 184.133 226.239C185.012 225.209 185.731 224.17 185.731 223.93C185.731 223.689 185.251 223.033 184.665 222.472L183.6 221.451V211.323V201.195L173.391 190.963L163.182 180.732L163.058 168.281L162.934 155.831L171.05 147.694L179.166 139.557H193.004H206.843L232.248 114.168L257.654 88.7789H294.046H330.438L338.587 80.6233L346.737 72.4677L346.042 70.5918C345.504 69.1421 345.348 67.8287 345.354 64.81C345.361 61.23 345.448 60.726 346.395 58.7734C347.72 56.0435 350.781 52.9812 353.513 51.6543C355.485 50.6964 355.948 50.6189 359.727 50.6128C363.428 50.6068 364.002 50.6959 365.854 51.5635C368.703 52.899 371.559 55.7095 372.96 58.5583C374.061 60.7965 374.109 61.0678 374.109 65.1593C374.109 69.3324 374.082 69.4748 372.91 71.636C371.419 74.3847 368.534 77.1556 365.854 78.4116C364.006 79.2773 363.42 79.3689 359.727 79.3689C356.227 79.3689 355.393 79.2533 353.888 78.5592L352.132 77.7495L342.864 86.9927L333.597 96.2359H297.221H260.845L235.446 121.625L210.048 147.014H196.214H182.38L176.421 152.974L170.462 158.933V168.242V177.551L180.758 187.938L191.055 198.326L191.056 208.345L191.057 218.365L192.267 219.574C193.425 220.733 193.608 220.791 196.617 220.943C200.539 221.142 203.18 222.301 205.897 225.016C210.444 229.56 211.53 236.662 208.535 242.268C206.597 245.896 201.758 249.403 198.13 249.81C196.695 249.971 196.009 249.704 190.114 246.704ZM130.691 225.708L127.673 224.921L127.578 216.37L127.483 207.819L131.928 203.338L136.373 198.858V169.496V140.134L150.035 126.53L163.698 112.925H178.88H194.063L218.042 88.9564L242.02 64.9875H258.698H275.376L293.014 47.362L310.653 29.7364L314.151 30.3645C318.352 31.1189 318.536 31.182 318.536 31.8663C318.536 32.1616 309.579 41.3326 298.631 52.2463L278.725 72.0894H262.153H245.581L221.418 96.2359L197.254 120.382H182H166.745L155.287 131.84L143.83 143.298V172.582V201.866L139.48 206.226L135.13 210.585L134.952 218.477C134.802 225.139 134.692 226.379 134.242 226.432C133.949 226.467 132.351 226.141 130.691 225.708ZM282.418 216.808C278.935 215.72 275.293 212.6 273.645 209.293C271.711 205.412 271.8 199.813 273.857 195.953C275.315 193.217 278.5 190.278 281.15 189.223C282.827 188.556 283.89 188.403 286.94 188.394C290.437 188.384 290.824 188.456 292.977 189.518C296.003 191.01 298.807 193.807 300.206 196.728C301.216 198.835 301.312 199.344 301.313 202.587C301.314 206.921 300.704 208.884 298.469 211.73C296.638 214.062 293.83 216.068 291.358 216.812C289.27 217.441 284.435 217.438 282.418 216.808ZM214.95 213.632C211.384 212.47 207.702 209.331 206.117 206.1C204.167 202.125 204.19 196.971 206.175 192.913C207.899 189.39 212.212 185.966 215.914 185.183C216.597 185.039 217.274 184.741 217.417 184.521C217.561 184.301 217.681 180.526 217.684 176.131L217.688 168.141L243.345 142.486L269.001 116.831H323.278H377.555L387.106 107.259L396.656 97.686V78.3184C396.656 63.0567 396.75 58.9527 397.1 58.9593C397.344 58.964 398.902 59.8827 400.562 61.0011L403.58 63.0345L403.672 82.0269L403.764 101.019L392.134 112.654L380.503 124.288L326.527 124.294C295.028 124.297 272.339 124.433 272.044 124.62C271.765 124.796 261.019 135.447 248.163 148.288L224.79 171.635L224.794 178.411C224.797 182.138 224.917 185.347 225.061 185.542C225.204 185.737 226.252 186.524 227.39 187.29C231.297 189.922 233.577 193.747 233.915 198.24C234.387 204.494 231.09 210.215 225.499 212.843C223.512 213.777 222.722 213.941 219.818 214.023C217.671 214.084 215.902 213.942 214.95 213.632ZM60.8918 205.689C59.5373 204.759 58.4292 203.802 58.4292 203.564C58.4292 203.325 66.6984 194.851 76.8053 184.733L95.1815 166.337V149.687V133.038L103.171 124.999L111.161 116.959V113.006V109.053L113.319 106.639C114.507 105.312 115.972 103.546 116.576 102.716C117.179 101.886 117.806 101.207 117.968 101.207C118.13 101.207 118.263 105.557 118.263 110.873V120.54L110.451 128.38L102.638 136.22V152.715V169.21L83.5509 188.295C73.0527 198.792 64.2138 207.381 63.9089 207.381C63.6039 207.381 62.2462 206.619 60.8918 205.689ZM38.7214 142.988C36.2827 142.423 34.1208 141.311 32.3507 139.712C31.0514 138.538 30.9462 138.278 30.2387 134.489C29.8291 132.297 29.2436 128.789 28.9374 126.695C28.4241 123.184 28.4265 122.792 28.9676 121.651C30.0412 119.389 30.2164 119.379 34.0273 121.37C40.2935 124.642 44.9556 126.194 55.2333 128.428L56.6537 128.737L56.5558 130.33C56.2435 135.417 52.3413 140.494 47.2595 142.425C44.9913 143.287 41.1118 143.543 38.7214 142.988ZM143.605 76.4077C134.1 73.1224 129.186 62.9818 132.472 53.4314C134.127 48.619 138.698 44.1961 143.652 42.6126C144.433 42.3628 145.19 41.9819 145.333 41.7661C145.477 41.5503 145.597 37.8392 145.599 33.5193L145.604 25.6649L148.735 25.2634C150.457 25.0424 152.549 24.8618 153.383 24.8618H154.9L153.98 25.9543L153.061 27.0469V34.5099C153.061 41.7319 153.084 41.979 153.788 42.163C156.144 42.7792 159.704 44.9329 161.753 46.9821C165.311 50.5397 166.91 54.4531 166.91 59.604C166.91 67.2423 161.908 74.177 154.804 76.388C151.91 77.2886 146.183 77.2987 143.605 76.4077ZM153.988 69.8564C156.423 68.6163 157.867 67.3512 158.944 65.5127C160.683 62.5459 161.125 59.7191 160.304 56.8203C158.788 51.467 154.603 48.1632 149.333 48.1594C141.409 48.1528 135.779 56.0275 138.502 63.3065C139.771 66.6958 141.768 68.7568 145.18 70.1972C147.886 71.3397 151.337 71.2062 153.988 69.8564ZM239.705 41.6172C234.892 40.3591 230.67 36.7865 228.428 32.0732C227.207 29.5071 227.099 29.0161 226.976 25.4832L226.843 21.666H229.855H232.867L233.027 24.425C233.311 29.3264 235.612 32.8411 239.853 34.847C246.89 38.1763 255.075 33.2859 255.914 25.25L256.141 23.0863L257.777 23.0908C258.677 23.0929 260.012 23.1937 260.744 23.3148L262.076 23.5349V25.8077C262.076 32.999 256.066 40.152 248.573 41.8787C246.23 42.4184 242.329 42.3031 239.705 41.6172Z" fill="#055800" fill-opacity="0.885845"/>
<path d="M214.169 21.3391C216.287 21.3434 218.437 21.3558 220.621 21.377C239.937 21.5639 248.846 21.9481 263.447 23.2262C310.09 27.3091 350.202 36.5116 380.984 50.1905C392.334 55.2345 407.979 64.7515 408.083 66.7749L375.381 84.7912C375.381 84.7912 369.793 81.6412 367.196 80.3774C339.086 66.6985 302.456 58.3043 259.862 54.2213C246.529 52.9432 238.393 52.5579 220.754 52.371C218.759 52.3499 216.797 52.3373 214.862 52.3332C185.846 52.2717 163.281 54.1503 137.938 58.6707C130.702 59.9615 128.966 60.3496 128.619 60.9877C128.591 60.4839 128.563 59.9798 128.524 59.4755C127.809 50.3828 126.004 43.7578 122.072 35.8095C120.731 33.0994 119.633 30.6337 119.633 30.3307C119.633 29.4557 120.708 29.1791 129.932 27.6767C157.684 23.1563 182.394 21.2777 214.169 21.3391Z" fill="url(#paint1_linear_1_2)"/>
<path d="M408.083 66.7748C408.706 67.8125 409.092 85.1492 408.882 91.5815C407.674 128.611 400.367 164.223 386.042 202.903C366.317 256.162 334.552 305.712 297.688 340.725C288.541 349.412 286.199 351.335 286.165 350.179C285.865 339.864 284.901 334.46 281.763 327.369C282.036 327.085 282.343 326.772 282.612 326.493C312.619 295.39 332.826 260.844 349.586 218.365C363.911 182.058 374.224 148.389 375.433 113.631C375.642 107.593 375.993 86.8635 375.514 85.0629C375.492 84.9828 375.381 84.7911 375.381 84.7911L408.083 66.7748ZM277.123 332.152C278.079 334.277 278.868 336.408 279.476 338.553C280.686 342.824 280.613 348.216 279.295 352.044C277.261 357.947 274.428 361.063 265.386 367.343C250.894 377.407 237.738 384.552 222.552 390.606C219.785 391.709 217.371 392.591 216.948 392.661C216.937 384.683 216.895 379.872 216.895 377.645C244.663 363.776 263.325 346.235 277.123 332.152Z" fill="url(#paint2_linear_1_2)"/>
<path d="M122.721 91.6847C116.093 105.9 105.845 115.941 91.7237 122.667C84.4317 126.14 77.6151 127.911 68.972 128.507C55.3714 129.445 43.6625 126.718 31.5269 119.786C28.8176 118.239 27.8783 117.857 27.5614 118.174C26.6356 119.1 30.6242 141.649 34.4148 156.918C38.0284 171.475 39.4306 175.803 43.5038 187.384C49.2092 203.606 55.5998 224.044 75.1925 259.009C114.309 328.816 168.6 375.865 216.948 392.67C216.936 384.684 216.895 379.874 216.895 377.645C248.523 361.849 268.346 341.28 282.612 326.493C312.619 295.391 332.825 260.844 349.586 218.365C363.911 182.059 374.224 148.389 375.433 113.631C375.642 107.593 375.993 86.8635 375.514 85.0629C375.492 84.9828 375.443 84.8898 375.381 84.7912C372.609 83.1715 369.793 81.6412 367.196 80.3774C339.086 66.6985 302.456 58.3043 259.862 54.2213C246.529 52.9432 238.393 52.5579 220.754 52.371C218.759 52.3499 216.797 52.3373 214.862 52.3332C185.846 52.2717 163.281 54.1503 137.938 58.6707C130.351 60.0241 128.807 60.3842 128.574 61.0817C129.291 72.5167 126.767 83.006 122.721 91.6847Z" fill="url(#paint3_radial_1_2)"/>
<path d="M223.196 407.778C232.484 404.297 237.223 402.218 246.225 397.679C265.165 388.128 281.997 376.599 300.213 360.698C306.119 355.543 321.038 340.66 326.509 334.466C349.053 308.944 366.962 282.368 382.741 251.019C407.244 202.341 421.744 151.019 424.648 102.692C425.377 90.5511 424.925 68.7562 423.74 59.0103L423.515 57.1552L418.317 53.2777C400.216 39.7745 379.773 30.2865 350.978 22.0229C320.805 13.3642 287.653 8.18465 245.692 5.57379C235.814 4.95913 193.037 4.96064 183.195 5.576C154.582 7.36513 131.425 10.2629 108.533 14.9191L106.488 15.3351L104.45 13.7356C95.5354 6.74065 84.657 2.09935 73.4398 0.505072C68.7017 -0.168357 60.1309 -0.168357 55.3928 0.505072C26.9238 4.55133 4.55133 26.9238 0.505071 55.3928C-0.168357 60.1309 -0.168357 68.7017 0.505071 73.4398C1.52363 80.6063 3.75025 87.573 7.11692 94.1272L8.94113 97.6786L9.23942 102.353C13.187 164.217 37.7632 233.924 76.1129 292.032C90.1372 313.282 103.469 329.877 120.152 346.848C147.692 374.866 177.046 394.842 208.741 407.134C211.975 408.388 214.941 409.558 215.332 409.734C216.497 410.258 216.75 410.195 223.196 407.778ZM210.715 390.365C168.924 373.364 128.495 338.56 95.0461 290.789C88.0888 280.853 77.5579 263.996 75.1925 259.008C73.366 255.157 73.8974 252.298 76.9491 249.554C80.2875 246.552 86.2275 245.204 96.0197 245.226C114.015 245.266 140.68 250.697 169.929 260.281C208.661 272.973 236.189 287.657 257.41 306.945C269.373 317.819 276.487 328.01 279.475 338.553C280.686 342.824 280.614 348.215 279.295 352.043C277.261 357.946 274.428 361.062 265.386 367.342C250.894 377.407 237.738 384.552 222.551 390.606C219.661 391.759 217.093 392.696 216.846 392.689C216.599 392.682 213.84 391.636 210.715 390.365ZM286.165 350.179C285.817 338.213 284.584 332.863 280.089 323.813C270.509 304.527 252.071 286.108 222.966 266.75C203.394 253.732 182.186 242.668 164.668 236.335C148.748 230.58 136.784 227.486 109.653 222.107C101.332 220.457 91.9043 218.45 88.7025 217.646C75.7032 214.382 65.4891 210.144 59.2674 205.433C53.0724 200.743 47.3064 194.011 43.8702 187.457C41.6881 183.295 38.0284 171.475 34.4148 156.919C30.6242 141.649 26.6355 119.1 27.5613 118.174C27.8782 117.857 28.8172 118.239 31.5265 119.786C43.6621 126.718 55.3718 129.445 68.9723 128.507C77.6154 127.911 84.4511 126.166 91.743 122.693C105.865 115.967 115.976 105.846 122.72 91.6851C127.4 81.8592 129.407 70.7194 128.524 59.4756C127.81 50.383 126.003 43.7572 122.071 35.8089C120.73 33.0988 119.634 30.6334 119.634 30.3303C119.634 29.4553 120.707 29.1786 129.931 27.6761C159.533 22.8544 185.675 21.0386 220.621 21.3767C239.937 21.5637 248.846 21.9485 263.447 23.2266C310.089 27.3096 350.201 36.5116 380.983 50.1904C392.334 55.2345 407.523 64.5292 408.083 66.7742C408.562 68.6926 409.092 85.1487 408.882 91.5811C407.674 128.611 400.367 164.223 386.042 202.903C366.317 256.162 334.552 305.712 297.687 340.725C288.541 349.412 286.199 351.334 286.165 350.179ZM54.8287 110.239C36.4009 106.345 22.4758 92.5713 18.3752 74.1814C17.6683 71.0113 17.5457 69.4958 17.5563 64.0612C17.5674 58.3547 17.6695 57.2682 18.5083 53.9254C20.3026 46.775 22.7045 41.6482 26.8192 36.1863C33.8464 26.8581 43.6153 20.6995 55.3614 18.1925C59.6053 17.2867 69.255 17.2962 73.4568 18.2102C82.5711 20.193 89.9382 24.0605 96.4838 30.2986C103.478 36.9645 107.552 43.9819 109.967 53.5266C110.847 57.0016 110.926 57.8862 110.924 64.2388C110.923 70.6667 110.851 71.4521 109.912 75.1944C108.406 81.1991 106.798 84.9043 103.494 89.9831C97.7911 98.7489 88.7428 105.707 78.8388 108.943C71.7068 111.273 62.1602 111.789 54.8287 110.239ZM68.6274 103.599C68.8502 103.291 69.8201 98.211 70.7827 92.3101C72.268 83.2045 72.456 81.5326 72.0255 81.2601C71.0114 80.6184 70.282 80.926 69.6549 82.2598L69.0288 83.5914L65.6573 83.6988C61.0968 83.8441 60.1058 83.6264 59.4367 82.3327C58.8732 81.2429 58.245 81.0453 57.1709 81.6202C56.5738 81.9398 56.584 82.1445 57.3701 85.615C57.8259 87.6269 58.8498 92.2291 59.6455 95.8422C61.4779 104.162 61.2691 103.544 62.3908 103.976C63.8551 104.539 68.1343 104.281 68.6274 103.599ZM52.5052 98.7717C52.4968 98.4299 51.6472 94.7461 50.6174 90.5855L48.745 83.0206L46.8155 81.5041C44.4185 79.62 42.811 77.8048 41.8158 75.8582C40.8799 74.0276 40.1022 71.2137 40.0965 69.6373C40.093 68.6047 39.3558 67.7039 33.8496 62.0027C30.4161 58.4476 27.4863 55.4944 27.3388 55.4401C26.9878 55.3106 26.0116 57.5798 25.4965 59.7225C25.272 60.6564 25.162 62.6538 25.2521 64.1612C25.4605 67.6503 26.338 69.4034 29.2875 72.2233C32.1577 74.9672 38.2579 85.1526 39.1746 88.7316C39.9199 91.6414 41.0241 93.5259 43.111 95.4496C45.9861 98.0997 52.5461 100.42 52.5052 98.7717ZM81.6384 98.4317C86.2842 96.9025 89.156 93.4433 89.9788 88.3852C90.384 85.8939 96.5785 75.3001 99.1517 72.6977C101.908 69.9105 103.033 67.4265 103.23 63.6951C103.376 60.9164 102.65 56.7004 101.894 55.9447C101.716 55.7671 99.0058 58.0842 95.5679 61.3522L89.5526 67.0704L89.3349 69.1167C88.8304 73.8587 86.3105 78.4581 82.8085 81.0288L81.0378 82.3286L79.5714 87.7538C78.7649 90.7377 77.713 94.5906 77.2338 96.3159L76.3627 99.4528L78.2016 99.2052C79.213 99.0691 80.7595 98.721 81.6384 98.4317ZM54.1481 78.0696C55.781 77.0833 57.1934 76.1527 57.2867 76.0016C57.3801 75.8506 56.6628 75.1344 55.6928 74.4102C52.7195 72.1904 50.8065 68.8565 50.2052 64.8462C50.0672 63.9262 49.8706 63.1735 49.7683 63.1735C49.666 63.1735 48.1514 64.0923 46.4024 65.2153L43.2226 67.2571L43.4487 68.9707C43.9583 72.8318 46.3278 76.8564 49.2192 78.7715C50.1254 79.3718 50.9372 79.8629 51.023 79.8629C51.1089 79.8629 52.5152 79.0559 54.1481 78.0696ZM80.9914 77.466C82.1689 76.3431 83.5198 74.7633 83.9934 73.9554C84.7218 72.7129 85.8726 68.6144 85.8934 67.1889C85.8987 66.8185 80.2392 63.2261 79.387 63.059C79.2099 63.0243 78.8601 63.9704 78.6096 65.1614C77.9514 68.2901 76.5635 70.7636 73.9805 73.4108C72.7327 74.6897 71.748 75.7673 71.7925 75.8053C72.1367 76.1001 78.3291 79.4694 78.5577 79.4863C78.7186 79.498 79.8138 78.589 80.9914 77.466ZM69.1465 73.0919C73.2486 71.042 75.4474 67.2219 75.1617 62.6408C74.8956 58.3724 72.9008 55.3289 69.0325 53.2892C67.5176 52.4904 66.8142 52.3531 64.2387 52.3531C61.6418 52.3531 60.9633 52.488 59.3784 53.3193C57.1059 54.5114 55.3144 56.317 54.2422 58.496C53.0481 60.9229 53.0609 65.4858 54.2687 67.9399C55.3937 70.2257 57.4621 72.2593 59.7417 73.3206C62.5561 74.631 66.246 74.5413 69.1465 73.0919ZM46.4079 60.2468C46.7096 59.8833 46.6386 59.513 46.1147 58.7183C45.7345 58.1415 45.4223 57.4281 45.4211 57.1331C45.4186 56.5649 48.2103 52.1826 49.4339 50.8339C49.9384 50.2779 50.5612 50.035 51.4825 50.035C52.6279 50.035 52.8552 49.8944 53.17 48.9915C53.4339 48.2344 53.4191 47.858 53.1159 47.6198C52.6798 47.2771 32.7297 42.2229 31.8131 42.2229C30.9824 42.2229 29.1427 44.5692 28.8814 45.9618C28.6639 47.1212 28.7616 47.3316 30.018 48.4104C30.7739 49.0594 34.4177 52.2372 38.1153 55.4721C45.0292 61.5208 45.2467 61.6461 46.4079 60.2468ZM91.8611 54.2679C97.1792 49.5945 99.6047 47.2346 99.6804 46.6603C99.822 45.5861 98.539 43.0711 97.5904 42.5634C96.7937 42.137 97.3194 42.0229 83.2363 45.6791C79.135 46.7439 75.6657 47.7219 75.5268 47.8525C75.0549 48.2961 76.1456 49.8611 76.8654 49.7732C78.4563 49.5789 79.0847 50.0941 81.2246 53.3471C82.4287 55.1776 83.4128 56.8989 83.4115 57.1724C83.4104 57.4458 83.0969 58.1432 82.7153 58.7222C82.0744 59.6945 82.0652 59.8234 82.5951 60.4089C82.9106 60.7576 83.3899 61.0429 83.6602 61.0429C83.9305 61.0429 87.6209 57.9942 91.8611 54.2679ZM72.0508 47.3973V43.3392L70.009 42.526C68.3435 41.8626 67.2801 41.7112 64.2387 41.7043C61.0284 41.697 60.2759 41.8119 58.8236 42.5311L57.1369 43.3664V47.2333C57.1369 49.6733 57.2731 51.1003 57.5061 51.1003C57.7092 51.1003 58.5481 50.7407 59.3703 50.3013C60.6395 49.623 61.4017 49.5038 64.4163 49.5121C67.5126 49.5208 68.2173 49.642 69.9203 50.4596C70.9944 50.9752 71.9132 51.4102 71.9621 51.4263C72.0109 51.4422 72.0508 49.6292 72.0508 47.3973ZM58.3202 39.6528C60.7142 38.5713 61.1078 38.503 64.9489 38.5012C68.4312 38.4994 69.2876 38.6166 70.7644 39.2958C71.7169 39.7339 72.9153 40.0838 73.4276 40.0734C75.0478 40.0404 89.9363 35.9718 90.0865 35.5209C90.1656 35.2838 89.0407 33.9194 87.5867 32.4888C85.5672 30.5018 84.4903 29.7326 83.0245 29.2301C80.483 28.3587 77.1259 28.416 74.0552 29.383C71.9222 30.0548 70.796 30.1497 64.9562 30.1497C59.587 30.1497 57.9894 30.0344 56.7376 29.5566C55.7066 29.163 54.0426 28.9539 51.7919 28.9352C48.6238 28.9087 48.2462 28.9848 46.0714 30.0887C43.6702 31.3075 39.6062 34.9056 39.8397 35.606C39.9123 35.8237 43.4743 37.0654 47.7553 38.3654C52.0363 39.6654 55.592 40.7455 55.657 40.7657C55.7219 40.7859 56.9203 40.2851 58.3202 39.6528Z" fill="url(#paint4_linear_1_2)"/>
<path d="M54.8287 110.239C36.4009 106.345 22.4757 92.5713 18.3752 74.1814C17.6683 71.0113 17.5456 69.4958 17.5563 64.0612C17.5674 58.3547 17.6695 57.2682 18.5083 53.9254C20.3026 46.775 22.7045 41.6482 26.8192 36.1863C33.8464 26.8581 43.6153 20.6995 55.3614 18.1925C59.6053 17.2867 69.255 17.2961 73.4568 18.2102C82.5711 20.193 89.9382 24.0605 96.4838 30.2986C103.478 36.9645 107.552 43.9819 109.967 53.5266C110.847 57.0016 110.926 57.8862 110.924 64.2388C110.923 70.6667 110.851 71.4521 109.912 75.1944C108.406 81.1991 106.798 84.9043 103.494 89.9831C97.7911 98.7489 88.7428 105.707 78.8388 108.943C71.7068 111.273 62.1602 111.789 54.8287 110.239ZM68.6273 103.599C68.8502 103.291 69.8201 98.211 70.7826 92.3101C72.268 83.2045 72.456 81.5326 72.0255 81.2601C71.0114 80.6184 70.282 80.926 69.6549 82.2598L69.0288 83.5914L65.6573 83.6988C61.0968 83.844 60.1057 83.6264 59.4367 82.3327C58.8732 81.2429 58.245 81.0453 57.1709 81.6202C56.5737 81.9398 56.5839 82.1445 57.3701 85.615C57.8258 87.6269 58.8498 92.2291 59.6455 95.8422C61.4779 104.162 61.2691 103.544 62.3907 103.976C63.855 104.539 68.1342 104.281 68.6273 103.599ZM52.5052 98.7717C52.4968 98.4299 51.6472 94.7461 50.6174 90.5855L48.745 83.0206L46.8155 81.5041C44.4185 79.62 42.811 77.8048 41.8158 75.8582C40.8799 74.0276 40.1022 71.2137 40.0965 69.6373C40.0927 68.6047 39.3558 67.7039 33.8496 62.0027C30.4161 58.4476 27.4863 55.4944 27.3388 55.4401C26.9878 55.3106 26.0115 57.5798 25.4965 59.7225C25.272 60.6564 25.162 62.6538 25.252 64.1612C25.4604 67.6503 26.3379 69.4034 29.2875 72.2233C32.1577 74.9672 38.2579 85.1526 39.1745 88.7315C39.9199 91.6414 41.0241 93.5259 43.111 95.4496C45.9861 98.0997 52.546 100.42 52.5052 98.7717ZM81.6384 98.4317C86.2842 96.9025 89.156 93.4433 89.9787 88.3852C90.384 85.8939 96.5785 75.3001 99.1517 72.6977C101.908 69.9105 103.033 67.4265 103.23 63.6951C103.376 60.9164 102.65 56.7004 101.894 55.9447C101.716 55.7671 99.0057 58.0841 95.5679 61.3522L89.5526 67.0704L89.3349 69.1167C88.8304 73.8587 86.3104 78.4581 82.8085 81.0288L81.0378 82.3286L79.5714 87.7538C78.7648 90.7377 77.7129 94.5906 77.2338 96.3159L76.3627 99.4528L78.2016 99.2052C79.213 99.0691 80.7595 98.721 81.6384 98.4317ZM54.148 78.0696C55.781 77.0833 57.1934 76.1527 57.2867 76.0016C57.3801 75.8505 56.6628 75.1344 55.6927 74.4102C52.7195 72.1904 50.8065 68.8565 50.2051 64.8462C50.0672 63.9262 49.8706 63.1735 49.7683 63.1735C49.666 63.1735 48.1514 64.0923 46.4024 65.2153L43.2226 67.2571L43.4487 68.9707C43.9582 72.8318 46.3278 76.8563 49.2191 78.7715C50.1254 79.3718 50.9371 79.8629 51.023 79.8629C51.1089 79.8629 52.5151 79.0559 54.148 78.0696ZM80.9913 77.466C82.1689 76.3431 83.5198 74.7633 83.9934 73.9554C84.7218 72.7129 85.8726 68.6144 85.8933 67.1889C85.8987 66.8185 80.2391 63.2261 79.387 63.059C79.2099 63.0243 78.8601 63.9704 78.6095 65.1614C77.9514 68.2901 76.5634 70.7636 73.9805 73.4108C72.7326 74.6897 71.748 75.7672 71.7925 75.8053C72.1367 76.1001 78.3291 79.4694 78.5576 79.4862C78.7186 79.498 79.8138 78.589 80.9913 77.466ZM69.1464 73.0919C73.2486 71.042 75.4473 67.2219 75.1617 62.6408C74.8956 58.3724 72.9008 55.3289 69.0325 53.2892C67.5175 52.4904 66.8142 52.353 64.2387 52.353C61.6418 52.353 60.9633 52.488 59.3784 53.3193C57.1059 54.5114 55.3144 56.317 54.2422 58.496C53.0481 60.9229 53.0609 65.4858 54.2687 67.9399C55.3937 70.2257 57.4621 72.2593 59.7417 73.3206C62.5561 74.631 66.2459 74.5413 69.1464 73.0919ZM46.4079 60.2468C46.7096 59.8833 46.6386 59.513 46.1147 58.7183C45.7345 58.1415 45.4223 57.4281 45.421 57.1331C45.4186 56.5649 48.2103 52.1826 49.4339 50.8339C49.9383 50.2779 50.5612 50.035 51.4825 50.035C52.6279 50.035 52.8552 49.8944 53.17 48.9915C53.4339 48.2344 53.4191 47.858 53.1159 47.6198C52.6798 47.2771 32.7297 42.2229 31.8131 42.2229C30.9824 42.2229 29.1427 44.5692 28.8814 45.9618C28.6639 47.1212 28.7616 47.3316 30.018 48.4104C30.7739 49.0594 34.4177 52.2372 38.1153 55.4721C45.0292 61.5208 45.2467 61.646 46.4079 60.2468ZM91.8611 54.2679C97.1792 49.5945 99.6047 47.2346 99.6804 46.6603C99.822 45.5861 98.539 43.0711 97.5903 42.5634C96.7937 42.137 97.3194 42.0229 83.2363 45.6791C79.135 46.7438 75.6657 47.7219 75.5267 47.8525C75.0549 48.2961 76.1456 49.8611 76.8654 49.7732C78.4563 49.5789 79.0847 50.0941 81.2246 53.3471C82.4287 55.1776 83.4128 56.8989 83.4115 57.1724C83.4101 57.4458 83.0969 58.1432 82.7152 58.7222C82.0744 59.6945 82.0652 59.8234 82.5951 60.4089C82.9106 60.7576 83.3899 61.0429 83.6602 61.0429C83.9304 61.0429 87.6208 57.9942 91.8611 54.2679ZM72.0508 47.3973V43.3392L70.009 42.526C68.3435 41.8626 67.2801 41.7112 64.2387 41.7043C61.0284 41.697 60.2758 41.8119 58.8235 42.5311L57.1368 43.3664V47.2333C57.1368 49.6733 57.2731 51.1003 57.5061 51.1003C57.7092 51.1003 58.5481 50.7407 59.3703 50.3013C60.6395 49.623 61.4017 49.5038 64.4163 49.5121C67.5126 49.5208 68.2173 49.642 69.9202 50.4596C70.9944 50.9752 71.9132 51.4102 71.962 51.4263C72.0109 51.4422 72.0508 49.6292 72.0508 47.3973ZM58.3201 39.6528C60.7142 38.5713 61.1078 38.503 64.9489 38.5012C68.4311 38.4994 69.2875 38.6166 70.7643 39.2958C71.7169 39.7339 72.9153 40.0838 73.4276 40.0733C75.0478 40.0404 89.9362 35.9718 90.0865 35.5209C90.1656 35.2838 89.0406 33.9193 87.5867 32.4888C85.5672 30.5018 84.4903 29.7326 83.0245 29.23C80.4829 28.3587 77.1259 28.416 74.0552 29.383C71.9222 30.0548 70.796 30.1496 64.9562 30.1496C59.587 30.1496 57.9894 30.0343 56.7376 29.5566C55.7066 29.163 54.0426 28.9539 51.7919 28.9351C48.6238 28.9087 48.2462 28.9848 46.0714 30.0887C43.6701 31.3075 39.6062 34.9056 39.8397 35.606C39.9122 35.8236 43.4742 37.0653 47.7552 38.3653C52.0363 39.6653 55.592 40.7455 55.6569 40.7657C55.7218 40.7859 56.9203 40.2851 58.3201 39.6528Z" fill="url(#paint5_radial_1_2)"/>
</g>
<defs>
<radialGradient id="paint0_radial_1_2" cx="0" cy="0" r="1" gradientUnits="userSpaceOnUse" gradientTransform="translate(51.0331 45.8741) scale(46.6844 46.8031)">
<stop stop-color="#A5A5A5"/>
<stop offset="1" stop-color="#302F2F" stop-opacity="0"/>
</radialGradient>
<linearGradient id="paint1_linear_1_2" x1="113.822" y1="36.4622" x2="413.894" y2="58.8752" gradientUnits="userSpaceOnUse">
<stop stop-color="#060606" stop-opacity="0"/>
<stop offset="1" stop-opacity="0.369863"/>
</linearGradient>
<linearGradient id="paint2_linear_1_2" x1="453.477" y1="71.9967" x2="220.505" y2="423.134" gradientUnits="userSpaceOnUse">
<stop stop-opacity="0.452055"/>
<stop offset="1" stop-opacity="0.625571"/>
</linearGradient>
<radialGradient id="paint3_radial_1_2" cx="0" cy="0" r="1" gradientUnits="userSpaceOnUse" gradientTransform="translate(95.3357 94.6637) rotate(-0.109323) scale(256.293 328.826)">
<stop stop-opacity="0.0136986"/>
<stop offset="1" stop-opacity="0.43379"/>
</radialGradient>
<linearGradient id="paint4_linear_1_2" x1="119.743" y1="105.213" x2="522.438" y2="444.486" gradientUnits="userSpaceOnUse">
<stop stop-color="white"/>
<stop offset="1" stop-color="#B4B4B4" stop-opacity="0.863118"/>
</linearGradient>
<radialGradient id="paint5_radial_1_2" cx="0" cy="0" r="1" gradientUnits="userSpaceOnUse" gradientTransform="translate(51.0331 45.874) scale(46.6844 46.8031)">
<stop stop-color="#A5A5A5"/>
<stop offset="1" stop-color="#2F302F"/>
</radialGradient>
<clipPath id="clip0_1_2">
<rect width="425" height="409.999" fill="white"/>
</clipPath>
</defs>
</svg>
